HIERARCHY
ROOT Hips
{
  OFFSET -323.466 92.5434 539.429
  CHANNELS 6 Xposition Yposition Zposition Zrotation Xrotation Yrotation
  JOINT Spine
  {
    OFFSET -1.59122e-05 8 3.30762e-05
    CHANNELS 6 Xposition Yposition Zposition Zrotation Xrotation Yrotation
    JOINT Spine1
    {
      OFFSET 1.83507e-05 8 0
      CHANNELS 6 Xposition Yposition Zposition Zrotation Xrotation Yrotation
      JOINT Spine2
      {
        OFFSET 0 8 -4.35226e-05
        CHANNELS 6 Xposition Yposition Zposition Zrotation Xrotation Yrotation
        JOINT Spine3
        {
          OFFSET 0 8 0
          CHANNELS 6 Xposition Yposition Zposition Zrotation Xrotation Yrotation
          JOINT Neck
          {
            OFFSET 6.99156e-05 17.0003 -0.000165631
            CHANNELS 6 Xposition Yposition Zposition Zrotation Xrotation Yrotation
            JOINT Head
            {
              OFFSET 6.30371e-05 10.8 0
              CHANNELS 6 Xposition Yposition Zposition Zrotation Xrotation Yrotation
              End Site
              {
                OFFSET 0 20.25 0
              }
            }
          }
          JOINT LeftShoulder
          {
            OFFSET 5 17 -1.82761e-05
            CHANNELS 6 Xposition Yposition Zposition Zrotation Xrotation Yrotation
            JOINT LeftShoulder2
            {
              OFFSET 6.45 0 0
              CHANNELS 6 Xposition Yposition Zposition Zrotation Xrotation Yrotation
              JOINT LeftArm
              {
                OFFSET 6.45 0 1.59567e-05
                CHANNELS 6 Xposition Yposition Zposition Zrotation Xrotation Yrotation
                JOINT LeftForeArm
                {
                  OFFSET 0 -32.4 -2
                  CHANNELS 6 Xposition Yposition Zposition Zrotation Xrotation Yrotation
                  JOINT LeftHand
                  {
                    OFFSET 0 -25.65 2
                    CHANNELS 6 Xposition Yposition Zposition Zrotation Xrotation Yrotation
                    JOINT LeftHandThumb1
                    {
                      OFFSET -0.499983 -1.50002 2.65001
                      CHANNELS 6 Xposition Yposition Zposition Zrotation Xrotation Yrotation
                      JOINT LeftHandThumb2
                      {
                        OFFSET 1.74135e-05 -3.80002 3.69996
                        CHANNELS 6 Xposition Yposition Zposition Zrotation Xrotation Yrotation
                        JOINT LeftHandThumb3
                        {
                          OFFSET -1.59529e-05 -2.99998 2.70002
                          CHANNELS 6 Xposition Yposition Zposition Zrotation Xrotation Yrotation
                          End Site
                          {
                            OFFSET 0 -2.30006 1.79999
                          }
                        }
                      }
                    }
                    JOINT LeftHandIndex
                    {
                      OFFSET 2.15175e-05 -1.9 1.6
                      CHANNELS 6 Xposition Yposition Zposition Zrotation Xrotation Yrotation
                      JOINT LeftHandIndex1
                      {
                        OFFSET 0 -8.30004 1.90001
                        CHANNELS 6 Xposition Yposition Zposition Zrotation Xrotation Yrotation
                        JOINT LeftHandIndex2
                        {
                          OFFSET -2.26524e-05 -4.49998 0
                          CHANNELS 6 Xposition Yposition Zposition Zrotation Xrotation Yrotation
                          JOINT LeftHandIndex3
                          {
                            OFFSET 0 -3.40001 0
                            CHANNELS 6 Xposition Yposition Zposition Zrotation Xrotation Yrotation
                            End Site
                            {
                              OFFSET 0 -2.59998 0
                            }
                          }
                        }
                      }
                    }
                    JOINT LeftHandMiddle
                    {
                      OFFSET -0.249988 -2.20367 0.400014
                      CHANNELS 6 Xposition Yposition Zposition Zrotation Xrotation Yrotation
                      JOINT LeftHandMiddle1
                      {
                        OFFSET 0 -8.30005 0.999982
                        CHANNELS 6 Xposition Yposition Zposition Zrotation Xrotation Yrotation
                        JOINT LeftHandMiddle2
                        {
                          OFFSET 1.42268e-05 -4.65001 0
                          CHANNELS 6 Xposition Yposition Zposition Zrotation Xrotation Yrotation
                          JOINT LeftHandMiddle3
                          {
                            OFFSET -3.69325e-05 -3.29997 1.43435e-05
                            CHANNELS 6 Xposition Yposition Zposition Zrotation Xrotation Yrotation
                            End Site
                            {
                              OFFSET 2.10748e-05 -2.70001 0
                            }
                          }
                        }
                      }
                    }
                    JOINT LeftHandRing
                    {
                      OFFSET -0.499962 -2.15005 -0.800021
                      CHANNELS 6 Xposition Yposition Zposition Zrotation Xrotation Yrotation
                      JOINT LeftHandRing1
                      {
                        OFFSET -2.35587e-05 -7.74997 -0.199968
                        CHANNELS 6 Xposition Yposition Zposition Zrotation Xrotation Yrotation
                        JOINT LeftHandRing2
                        {
                          OFFSET 1.66266e-05 -3.80004 -6.468e-05
                          CHANNELS 6 Xposition Yposition Zposition Zrotation Xrotation Yrotation
                          JOINT LeftHandRing3
                          {
                            OFFSET -1.11664e-05 -3.39996 6.01801e-05
                            CHANNELS 6 Xposition Yposition Zposition Zrotation Xrotation Yrotation
                            End Site
                            {
                              OFFSET -2.59652e-05 -2.59998 0
                            }
                          }
                        }
                      }
                    }
                    JOINT LeftHandPinky
                    {
                      OFFSET -0.749988 -1.75005 -1.84998
                      CHANNELS 6 Xposition Yposition Zposition Zrotation Xrotation Yrotation
                      JOINT LeftHandPinky1
                      {
                        OFFSET 0 -7.15002 -1.00001
                        CHANNELS 6 Xposition Yposition Zposition Zrotation Xrotation Yrotation
                        JOINT LeftHandPinky2
                        {
                          OFFSET 0 -3.00002 0.0011692
                          CHANNELS 6 Xposition Yposition Zposition Zrotation Xrotation Yrotation
                          JOINT LeftHandPinky3
                          {
                            OFFSET 0 -2.35002 0
                            CHANNELS 6 Xposition Yposition Zposition Zrotation Xrotation Yrotation
                            End Site
                            {
                              OFFSET -1.91749e-05 -2.1 0
                            }
                          }
                        }
                      }
                    }
                  }
                }
              }
            }
          }
          JOINT RightShoulder
          {
            OFFSET -5.00003 17 -3.35753e-05
            CHANNELS 6 Xposition Yposition Zposition Zrotation Xrotation Yrotation
            JOINT RightShoulder2
            {
              OFFSET -6.45 0 0
              CHANNELS 6 Xposition Yposition Zposition Zrotation Xrotation Yrotation
              JOINT RightArm
              {
                OFFSET -6.45 0 0
                CHANNELS 6 Xposition Yposition Zposition Zrotation Xrotation Yrotation
                JOINT RightForeArm
                {
                  OFFSET 4.6966e-05 -32.4 -1.99997
                  CHANNELS 6 Xposition Yposition Zposition Zrotation Xrotation Yrotation
                  JOINT RightHand
                  {
                    OFFSET 0 -25.65 2
                    CHANNELS 6 Xposition Yposition Zposition Zrotation Xrotation Yrotation
                    JOINT RightHandThumb1
                    {
                      OFFSET 0.500035 -1.49999 2.65001
                      CHANNELS 6 Xposition Yposition Zposition Zrotation Xrotation Yrotation
                      JOINT RightHandThumb2
                      {
                        OFFSET -2.43408e-05 -3.8 3.69999
                        CHANNELS 6 Xposition Yposition Zposition Zrotation Xrotation Yrotation
                        JOINT RightHandThumb3
                        {
                          OFFSET 0 -2.99999 2.69995
                          CHANNELS 6 Xposition Yposition Zposition Zrotation Xrotation Yrotation
                          End Site
                          {
                            OFFSET 2.32788e-05 -2.3 1.80002
                          }
                        }
                      }
                    }
                    JOINT RightHandIndex
                    {
                      OFFSET 1.21768e-05 -1.89995 1.59998
                      CHANNELS 6 Xposition Yposition Zposition Zrotation Xrotation Yrotation
                      JOINT RightHandIndex1
                      {
                        OFFSET 2.19317e-05 -8.30006 1.90003
                        CHANNELS 6 Xposition Yposition Zposition Zrotation Xrotation Yrotation
                        JOINT RightHandIndex2
                        {
                          OFFSET -1.78489e-05 -4.50003 -2.72835e-05
                          CHANNELS 6 Xposition Yposition Zposition Zrotation Xrotation Yrotation
                          JOINT RightHandIndex3
                          {
                            OFFSET 3.62719e-05 -3.39996 0
                            CHANNELS 6 Xposition Yposition Zposition Zrotation Xrotation Yrotation
                            End Site
                            {
                              OFFSET 0 -2.60004 0
                            }
                          }
                        }
                      }
                    }
                    JOINT RightHandMiddle
                    {
                      OFFSET 0.250023 -2.19998 0.399991
                      CHANNELS 6 Xposition Yposition Zposition Zrotation Xrotation Yrotation
                      JOINT RightHandMiddle1
                      {
                        OFFSET -1.76338e-05 -8.29999 0.999992
                        CHANNELS 6 Xposition Yposition Zposition Zrotation Xrotation Yrotation
                        JOINT RightHandMiddle2
                        {
                          OFFSET 0 -4.65002 0
                          CHANNELS 6 Xposition Yposition Zposition Zrotation Xrotation Yrotation
                          JOINT RightHandMiddle3
                          {
                            OFFSET 1.02685e-05 -3.30001 0
                            CHANNELS 6 Xposition Yposition Zposition Zrotation Xrotation Yrotation
                            End Site
                            {
                              OFFSET 0 -2.70001 1.06069e-05
                            }
                          }
                        }
                      }
                    }
                    JOINT RightHandRing
                    {
                      OFFSET 0.500039 -2.15205 -0.799974
                      CHANNELS 6 Xposition Yposition Zposition Zrotation Xrotation Yrotation
                      JOINT RightHandRing1
                      {
                        OFFSET -4.08412e-05 -7.74998 -0.200043
                        CHANNELS 6 Xposition Yposition Zposition Zrotation Xrotation Yrotation
                        JOINT RightHandRing2
                        {
                          OFFSET 0 -3.80001 0
                          CHANNELS 6 Xposition Yposition Zposition Zrotation Xrotation Yrotation
                          JOINT RightHandRing3
                          {
                            OFFSET 2.27517e-05 -3.39998 0
                            CHANNELS 6 Xposition Yposition Zposition Zrotation Xrotation Yrotation
                            End Site
                            {
                              OFFSET 0 -2.60001 0
                            }
                          }
                        }
                      }
                    }
                    JOINT RightHandPinky
                    {
                      OFFSET 0.75002 -1.74999 -1.84999
                      CHANNELS 6 Xposition Yposition Zposition Zrotation Xrotation Yrotation
                      JOINT RightHandPinky1
                      {
                        OFFSET -1.24973e-05 -7.15401 -1.00002
                        CHANNELS 6 Xposition Yposition Zposition Zrotation Xrotation Yrotation
                        JOINT RightHandPinky2
                        {
                          OFFSET 0 -2.99997 1.15542e-05
                          CHANNELS 6 Xposition Yposition Zposition Zrotation Xrotation Yrotation
                          JOINT RightHandPinky3
                          {
                            OFFSET 1.38604e-05 -2.34998 -2.87097e-05
                            CHANNELS 6 Xposition Yposition Zposition Zrotation Xrotation Yrotation
                            End Site
                            {
                              OFFSET 0 -2.09999 0
                            }
                          }
                        }
                      }
                    }
                  }
                }
              }
            }
          }
        }
      }
    }
  }
  JOINT LeftUpLeg
  {
    OFFSET 8.00001 0 0
    CHANNELS 6 Xposition Yposition Zposition Zrotation Xrotation Yrotation
    JOINT LeftLeg
    {
      OFFSET 0 -45 -1.00002
      CHANNELS 6 Xposition Yposition Zposition Zrotation Xrotation Yrotation
      JOINT LeftFoot
      {
        OFFSET 1.20578e-05 -41 -2
        CHANNELS 6 Xposition Yposition Zposition Zrotation Xrotation Yrotation
        JOINT LeftToeBase
        {
          OFFSET -6.11208e-05 -7.5 12.5
          CHANNELS 6 Xposition Yposition Zposition Zrotation Xrotation Yrotation
          JOINT LeftFootToe
          {
            OFFSET 0 0 4
            CHANNELS 6 Xposition Yposition Zposition Zrotation Xrotation Yrotation
            End Site
            {
              OFFSET 0 0 0
            }
          }
        }
      }
    }
  }
  JOINT RightUpLeg
  {
    OFFSET -8.00001 0 0
    CHANNELS 6 Xposition Yposition Zposition Zrotation Xrotation Yrotation
    JOINT RightLeg
    {
      OFFSET -2.48597e-05 -45 -1.00001
      CHANNELS 6 Xposition Yposition Zposition Zrotation Xrotation Yrotation
      JOINT RightFoot
      {
        OFFSET 0 -41 -1.99999
        CHANNELS 6 Xposition Yposition Zposition Zrotation Xrotation Yrotation
        JOINT RightToeBase
        {
          OFFSET 0 -7.50001 12.5
          CHANNELS 6 Xposition Yposition Zposition Zrotation Xrotation Yrotation
          JOINT RightFootToe
          {
            OFFSET 0 0 4
            CHANNELS 6 Xposition Yposition Zposition Zrotation Xrotation Yrotation
            End Site
            {
              OFFSET 0 0 0
            }
          }
        }
      }
    }
  }
}
MOTION
Frames:	3
Frame Time:	0.0111111
-283.856 92.8439 548.775 2.96821 -0.493216 167.311 -8.52651e-14 8 1.13687e-13 17.2071 4.48837 9.69083 0 8 0 4.5673 7.02474 24.7253 0 8 -5.68434e-14 1.10704 -0.985821 -49.1331 -2.84217e-14 8 1.13687e-13 2.6214 3.21779 12.2452 2.84217e-14 17 1.13687e-13 1.04717 -0.255026 -21.1255 -2.84217e-14 10.8 0 2.21069 -1.19842 -50.6403 5 17 0 -12.2254 -6.03423 8.38088 6.45 7.10543e-15 0 -0.026268 -0.486627 1.06771 6.45 2.84217e-14 1.13687e-13 55.1633 -39.7494 11.2086 0 -32.4 -2 -65.4588 -19.4816 -23.1388 0 -25.65 2 -25.0865 43.2031 -14.2768 -0.5 -1.5 2.65 14.0123 -38.4323 31.4913 5.68434e-14 -3.8 3.7 -0.123586 28.4149 -0.0116196 -1.13687e-13 -3 2.7 0.09121 7.86616 0.111644 5.68434e-14 -1.9 1.6 1.59028e-15 3.97569e-16 -0 0 -8.3 1.9 -25.7831 32.2065 8.43498 0 -4.5 5.68434e-14 -0.957362 0.00156398 0.0238917 0 -3.4 0 -0.918185 0.000765084 0.0229707 -0.25 -2.2 0.4 1.59028e-15 3.97569e-16 -0 0 -8.3 1 -51.3597 28.6885 17.3211 2.84217e-14 -4.65 -5.68434e-14 -1.43944 0.00134529 -0.00833169 5.68434e-14 -3.3 -5.68434e-14 -1.40777 -0.00341145 -0.000497241 -0.5 -2.15 -0.8 1.59028e-15 3.97569e-16 -0 5.68434e-14 -7.75 -0.2 -53.0134 21.379 14.7707 0 -3.8 5.68434e-14 -60.5869 0.0060418 -0.0260663 0 -3.4 0 -42.6622 0.00836788 0.00899881 -0.75 -1.75 -1.85 1.59028e-15 3.97569e-16 -0 1.13687e-13 -7.15 -1 -86.3064 6.68078 19.3234 0 -3 0 -0.00187392 -0.00837334 0.0270841 1.42109e-14 -2.35 -5.68434e-14 -1.65346e-06 -0.0047514 0.0255768 -5 17 1.13687e-13 -9.11716 -1.98462 6.9795 -6.45 0 0 -2.30027 0.798851 -0.133168 -6.45 -1.42109e-14 0 -51.4003 -16.5544 -55.4075 -5.68434e-14 -32.4 -2 -51.8672 -9.01947 -86.1214 0 -25.65 2 86.4169 22.6878 3.1779 0.5 -1.5 2.65 23.5762 27.6947 0.644122 8.52651e-14 -3.8 3.7 1.94397 15.099 -0.493781 2.84217e-14 -3 2.7 0.496041 49.0437 -0.421218 8.52651e-14 -1.9 1.6 -6.36111e-15 0 7.95139e-16 -8.52651e-14 -8.3 1.9 32.6185 6.66981 -2.30867 2.84217e-14 -4.5 0 33.2953 0.0340946 -0.0496788 0 -3.4 1.42109e-14 24.0623 0.0890597 -0.00165595 0.25 -2.2 0.4 -6.36111e-15 0 7.95139e-16 0 -8.3 1 24.6627 2.32379 -1.4295 5.68434e-14 -4.65 0 50.1568 0.111378 0.0125063 0 -3.3 0 34.605 -0.0222175 -0.167268 0.5 -2.15 -0.8 -6.36111e-15 0 7.95139e-16 0 -7.75 -0.2 26.0076 0.62718 -4.23055 -2.84217e-14 -3.8 0 28.8834 -0.0013794 0.0515655 5.68434e-14 -3.4 2.84217e-14 21.4234 -0.0360577 0.00595463 0.75 -1.75 -1.85 -6.36111e-15 0 7.95139e-16 0 -7.15 -1 24.9314 6.03693 -2.21613 0 -3 1.42109e-14 0.000102302 -0.152494 0.0678409 2.84217e-14 -2.35 1.42109e-14 9.20065e-05 -0.148831 0.067906 8 4.26326e-14 0 17.5006 -8.21507 3.15318 -5.68434e-14 -45 -1 -0.0756718 1.93093 -2.12134 0 -41 -2 -14.9227 2.92884 -5.51268 0 -7.5 12.5 5.46133e-09 -8.60805e-07 -8.32992e-09 -5.68434e-14 0 4 2.45024 -10.8503 39.6893 -8 0 0 2.44325 0.300965 -8.62947 -2.84217e-14 -45 -1 0.0105143 3.8614 1.06295 2.84217e-14 -41 -2 0.499042 -3.91553 -0.69391 0 -7.5 12.5 0.000230257 4.17455e-09 -0.0024681 -5.68434e-14 6.93889e-18 4 1.06909 0.72606 31.202 
-283.746 92.8363 548.854 3.04301 -0.497994 167.362 -5.68434e-14 8 0 17.2498 4.42081 9.74578 -5.68434e-14 8 0 4.56738 6.99073 24.7424 0 8 5.68434e-14 1.10903 -1.00343 -49.1249 -2.84217e-14 8 1.13687e-13 2.62431 3.20115 12.2534 0 17 0 1.08095 -0.228661 -21.17 -2.84217e-14 10.8 0 2.30198 -1.16042 -50.7533 5 17 0 -12.2007 -5.99328 8.43087 6.45 2.84217e-14 0 -0.026693 -0.475292 1.06046 6.45 1.42109e-14 0 55.4279 -39.3869 11.616 0 -32.4 -2 -65.7919 -21.1979 -25.6881 0 -25.65 2 -23.3348 41.6476 -16.1342 -0.5 -1.5 2.65 13.1483 -37.116 30.6109 5.68434e-14 -3.8 3.7 -0.190638 27.7898 -0.0364934 5.68434e-14 -3 2.7 0.160579 8.91374 0.192771 5.68434e-14 -1.9 1.6 3.97569e-16 -1.3418e-15 -0 -1.13687e-13 -8.3 1.9 -25.2457 32.0804 8.21062 -5.68434e-14 -4.5 0 -0.478948 0.00140043 0.0137587 5.68434e-14 -3.4 0 -0.461558 0.000696081 0.013239 -0.25 -2.2 0.4 3.97569e-16 -1.3418e-15 -0 0 -8.3 1 -50.2439 28.8822 17.0006 0 -4.65 -2.84217e-14 -1.29942 0.00144679 -0.0086296 0 -3.3 -5.68434e-14 -1.27364 -0.00308661 -0.00232846 -0.5 -2.15 -0.8 3.97569e-16 -1.3418e-15 -0 0 -7.75 -0.2 -52.2061 21.7597 14.7699 0 -3.8 5.68434e-14 -61.0282 0.0120567 -0.0239964 5.68434e-14 -3.4 0 -43.0634 0.0123961 0.00847424 -0.75 -1.75 -1.85 3.97569e-16 -1.3418e-15 -0 5.68434e-14 -7.15 -1 -86.0455 6.98142 19.4459 -1.06581e-14 -3 0 -0.00190489 -0.00802494 0.027207 2.84217e-14 -2.35 -5.68434e-14 -2.35454e-06 -0.00453131 0.0257207 -5 17 -1.13687e-13 -9.0809 -2.02604 7.13417 -6.45 1.42109e-14 0 -2.29457 0.798586 -0.133799 -6.45 0 0 -51.0761 -16.2461 -55.5835 0 -32.4 -2 -52.1459 -9.15378 -86.2387 0 -25.65 2 86.2635 22.9426 3.138 0.5 -1.5 2.65 23.5662 27.6665 0.684663 5.68434e-14 -3.8 3.7 1.94496 15.1253 -0.493792 0 -3 2.7 0.495674 49.0544 -0.42075 5.68434e-14 -1.9 1.6 3.18055e-15 0 -0 0 -8.3 1.9 32.5999 6.70183 -2.31709 2.84217e-14 -4.5 1.42109e-14 33.3156 0.0342877 -0.0508845 -5.68434e-14 -3.4 0 24.0744 0.0892223 -0.00170283 0.25 -2.2 0.4 3.18055e-15 0 -0 -2.84217e-14 -8.3 1 24.6362 2.3347 -1.42681 0 -4.65 0 50.2235 0.110022 0.0122894 -1.13687e-13 -3.3 0 34.6508 -0.022692 -0.166046 0.5 -2.15 -0.8 3.18055e-15 0 -0 0 -7.75 -0.2 26.0495 0.555126 -4.23455 2.84217e-14 -3.8 0 28.8601 -0.00245214 0.0509016 -5.68434e-14 -3.4 -2.84217e-14 21.4094 -0.0347988 0.00607892 0.75 -1.75 -1.85 3.18055e-15 0 -0 -5.68434e-14 -7.15 -1 24.9993 6.03193 -2.22267 5.68434e-14 -3 1.42109e-14 0.000103542 -0.152991 0.0679933 0 -2.35 1.42109e-14 9.28642e-05 -0.149187 0.0680579 8 1.42109e-14 0 17.6466 -8.29351 3.13974 0 -45 -1 -0.0709124 2.00761 -2.18016 0 -41 -2 -14.9863 2.89894 -5.4815 -8.52651e-14 -7.5 12.5 5.46133e-09 -8.55556e-07 -8.32993e-09 2.84217e-14 0 4 2.52873 -10.7624 39.6896 -8 -1.42109e-14 0 2.60039 0.275488 -8.59503 0 -45 -1 0.010654 3.86966 1.0592 2.84217e-14 -41 -2 0.412297 -3.90152 -0.73104 0 -7.5 12.5 0.000230257 4.17455e-09 -0.0024681 0 0 4 1.15411 0.79027 31.1984 
-283.63 92.8276 548.936 3.12116 -0.501715 167.433 2.84217e-14 8 0 17.2916 4.34567 9.79835 -5.68434e-14 8 0 4.56919 6.95344 24.7588 5.68434e-14 8 5.68434e-14 1.11157 -1.02278 -49.1171 -2.84217e-14 8 -1.13687e-13 2.62765 3.18294 12.261 0 17 0 1.11536 -0.201072 -21.2193 2.84217e-14 10.8 0 2.39538 -1.12027 -50.8784 5 17 0 -12.1751 -5.9508 8.46132 6.45 -7.10543e-15 -1.13687e-13 -0.0271319 -0.465634 1.05263 6.45 4.26326e-14 1.13687e-13 55.6603 -38.963 12.0012 0 -32.4 -2 -66.2707 -23.0706 -28.4994 -2.84217e-14 -25.65 2 -21.2871 39.8359 -18.2472 -0.5 -1.5 2.65 12.0791 -35.5943 29.5894 0 -3.8 3.7 -0.259338 26.9956 -0.0633004 5.68434e-14 -3 2.7 0.225825 10.1614 0.273416 5.68434e-14 -1.9 1.6 1.98785e-16 4.22417e-16 -0 0 -8.3 1.9 -24.5267 31.8858 7.90827 -5.68434e-14 -4.5 5.68434e-14 -0.123048 0.00123564 0.00327457 0 -3.4 0 -0.1182 0.000625262 0.00313941 -0.25 -2.2 0.4 1.98785e-16 4.22417e-16 -0 -5.68434e-14 -8.3 1 -48.9553 29.0469 16.5908 0 -4.65 -2.84217e-14 -1.18737 0.00155261 -0.00891774 0 -3.3 -2.84217e-14 -1.16639 -0.00269052 -0.00404072 -0.5 -2.15 -0.8 1.98785e-16 4.22417e-16 -0 0 -7.75 -0.2 -51.4244 22.1205 14.7625 -5.68434e-14 -3.8 0 -61.5128 0.0167658 -0.021911 5.68434e-14 -3.4 0 -43.4974 0.0153925 0.00725575 -0.75 -1.75 -1.85 1.98785e-16 4.22417e-16 -0 5.68434e-14 -7.15 -1 -85.7814 7.28661 19.5547 -7.10543e-15 -3 0 -0.00193196 -0.00774521 0.0272877 4.26326e-14 -2.35 0 -3.08879e-06 -0.00430667 0.0258267 -5 17 -1.13687e-13 -9.03088 -2.08016 7.29168 -6.45 1.42109e-14 0 -2.28705 0.798242 -0.134503 -6.45 -1.42109e-14 1.13687e-13 -50.7508 -15.9048 -55.8081 5.68434e-14 -32.4 -2 -52.4894 -9.30868 -86.3494 5.68434e-14 -25.65 2 86.1646 23.1212 3.03835 0.5 -1.5 2.65 23.5757 27.6519 0.702985 5.68434e-14 -3.8 3.7 1.94546 15.1291 -0.493754 0 -3 2.7 0.495542 49.0848 -0.420473 0 -1.9 1.6 0 0 -1.59028e-15 -8.52651e-14 -8.3 1.9 32.5909 6.76414 -2.33529 2.84217e-14 -4.5 0 33.3117 0.0344783 -0.0520807 -5.68434e-14 -3.4 0 24.072 0.0893803 -0.00174921 0.25 -2.2 0.4 0 0 -1.59028e-15 5.68434e-14 -8.3 1 24.6185 2.37972 -1.42918 -2.84217e-14 -4.65 0 50.2612 0.108656 0.0120755 -1.13687e-13 -3.3 -2.84217e-14 34.6768 -0.0231921 -0.164824 0.5 -2.15 -0.8 0 0 -1.59028e-15 -5.68434e-14 -7.75 -0.2 26.1205 0.518831 -4.24224 2.84217e-14 -3.8 0 28.8343 -0.00352337 0.0501757 -5.68434e-14 -3.4 0 21.3939 -0.0335391 0.00620491 0.75 -1.75 -1.85 0 0 -1.59028e-15 -5.68434e-14 -7.15 -1 25.1569 6.05128 -2.24505 2.84217e-14 -3 2.84217e-14 0.00010471 -0.153423 0.0681412 2.84217e-14 -2.35 0 9.37012e-05 -0.149532 0.0682054 8 2.84217e-14 0 17.7976 -8.38291 3.15881 -2.84217e-14 -45 -1 -0.0655797 2.09303 -2.2405 -5.68434e-14 -41 -2 -15.0495 2.87693 -5.50134 -5.68434e-14 -7.5 12.5 5.46133e-09 -8.50303e-07 -8.32992e-09 -2.84217e-14 0 4 2.6063 -10.6706 39.689 -8 -1.42109e-14 1.13687e-13 2.7644 0.252268 -8.55547 5.68434e-14 -45 -1 0.0108156 3.87752 1.05529 5.68434e-14 -41 -2 0.322213 -3.88922 -0.780664 0 -7.5 12.5 0.000230257 4.17455e-09 -0.0024681 2.84217e-14 0 4 1.23436 0.853016 31.1956 
